<svg xmlns="http://www.w3.org/2000/svg" xmlns:xlink="http://www.w3.org/1999/xlink" width="500" zoomAndPan="magnify" viewBox="0 0 375 374.999991" height="500" preserveAspectRatio="xMidYMid meet" version="1.0"><defs><clipPath id="d3eb680c2b"><path d="M 14.011719 151 L 188 151 L 188 304.078125 L 14.011719 304.078125 Z M 14.011719 151 " clip-rule="nonzero"/></clipPath><clipPath id="a6d60c8700"><path d="M 187 70.828125 L 361.261719 70.828125 L 361.261719 224 L 187 224 Z M 187 70.828125 " clip-rule="nonzero"/></clipPath></defs><g clip-path="url(#d3eb680c2b)"><path fill="#606e8b" d="M 130.84375 259.460938 L 130.84375 280.578125 L 35.199219 236.144531 L 35.199219 219.011719 L 130.84375 174.574219 L 130.84375 195.699219 L 58.511719 227.378906 L 58.511719 227.777344 Z M 187.644531 151.105469 L 27.699219 151.105469 C 20.148438 151.105469 14.027344 157.226562 14.027344 164.78125 L 14.027344 290.375 C 14.027344 297.925781 20.148438 304.046875 27.699219 304.046875 L 143.242188 304.046875 L 187.644531 151.105469 " fill-opacity="1" fill-rule="nonzero"/></g><g clip-path="url(#a6d60c8700)"><path fill="#9490e6" d="M 339.828125 156.539062 L 244.1875 200.375 L 244.1875 179.25 L 318.113281 147.574219 L 318.113281 147.175781 L 244.1875 115.488281 L 244.1875 94.371094 L 339.828125 138.207031 Z M 232.046875 70.902344 L 187.644531 223.84375 L 347.332031 223.84375 C 354.882812 223.84375 361.003906 217.722656 361.003906 210.167969 L 361.003906 84.574219 C 361.003906 77.023438 354.882812 70.902344 347.332031 70.902344 L 232.046875 70.902344 " fill-opacity="1" fill-rule="nonzero"/></g></svg>